<svg xmlns="http://www.w3.org/2000/svg" width="1267" height="266" viewBox="0 0 1267 266" fill="none"><path d="M124.888 0V36.0874C82.3693 54.7774 27.9138 101.835 0 145.273V0H124.888Z" fill="#FFD500"></path><path d="M13.6804 265.946C31.3257 201.749 71.6208 144.977 128.523 107.043L128.56 107.08C170.078 80.9288 217.528 65.7477 266.349 62.8297V179.218C211.189 185.94 167.669 219.479 145.242 265.946H13.6804Z" fill="#FFD500"></path><path d="M600.13 146.337C524.714 135.217 471.36 74.7756 463.24 0H333.172V266H462.128V220.817C503.061 246.604 549.519 262.01 597.498 266H600.13V146.337Z" fill="#FFD500"></path><path d="M791.85 0V36.0874C749.331 54.7774 694.876 101.835 666.962 145.273V0H791.85Z" fill="#FFD500"></path><path d="M795.485 107.043C738.583 144.977 698.288 201.749 680.642 265.946H812.204C834.631 219.479 878.151 185.94 933.311 179.218V62.8297C884.49 65.7477 837.04 80.9288 795.522 107.08L795.485 107.043Z" fill="#FFD500"></path><path d="M1130.11 0C1138.23 74.7756 1191.58 135.18 1267 146.337V266H1264.37C1216.39 262.01 1169.93 246.604 1129 220.817V266H1000.04V0H1130.11Z" fill="#FFD500"></path></svg>